<svg width="218" height="50" viewBox="0 0 218 50" fill="none" xmlns="http://www.w3.org/2000/svg">
<path fill-rule="evenodd" clip-rule="evenodd" d="M177.457 0.314398C177.942 0.110464 178.472 0.00637269 179.041 0.00637269H181.954C182.199 0.00637269 182.437 0.0276157 182.669 0.070102C182.901 0.02974 183.139 0.00637269 183.384 0.00637269H197.947C198.191 0.00637269 198.43 0.0276157 198.662 0.070102C198.894 0.02974 199.132 0.00637269 199.377 0.00637269H213.94C216.176 0.00637269 218 1.82691 218 4.05957V10.2371C218 12.4697 216.176 14.2903 213.94 14.2903H209.522V15.2207H213.863C216.163 15.2207 218 17.054 218 19.3504V25.3983C218 27.6947 216.163 29.528 213.863 29.528H209.522V30.4584H213.94C216.176 30.4584 218 32.279 218 34.5116V40.6891C218 42.9218 216.176 44.7423 213.94 44.7423H199.377C199.132 44.7423 198.894 44.7211 198.662 44.6786C198.43 44.719 198.189 44.7423 197.947 44.7423H183.384C182.614 44.7423 181.892 44.5256 181.277 44.1518L180.2 45.9957C180.149 46.0828 180.098 46.1677 180.049 46.2548C179.528 47.2108 179.009 48.0732 178.143 48.7806C175.472 50.9602 171.513 50.0956 169.832 47.1385L168.73 45.2543C168.609 45.0546 168.498 44.8485 168.377 44.6488C167.589 43.353 166.844 42.0317 166.078 40.7231L163.078 35.5844C162.569 34.7432 162.101 33.8807 161.59 33.0416C161.577 33.0225 161.569 33.0055 161.558 32.9864L160.245 30.741C160.239 30.7303 160.234 30.7218 160.228 30.7091C160.164 30.5986 160.1 30.4924 160.036 30.382L159.294 29.1074C159.275 29.0734 159.258 29.0436 159.238 29.0096C158.783 28.179 158.423 27.5715 158.249 26.7919V29.7808C158.249 32.0134 156.425 33.834 154.188 33.834H146.776C144.54 33.834 142.716 32.0134 142.716 29.7808V25.12C142.001 25.2199 141.273 25.2687 140.528 25.2687C137.617 25.2687 134.867 24.572 132.548 22.9957V29.7808C132.548 32.0134 130.724 33.834 128.487 33.834H121.188C119.155 33.834 117.464 32.33 117.172 30.3798L116.276 31.869C115.521 33.1223 114.263 33.834 112.797 33.834H104.782C104.322 33.834 103.878 33.7575 103.465 33.6152C103.052 33.7575 102.609 33.834 102.147 33.834H94.7352C92.4986 33.834 90.6748 32.0134 90.6748 29.7808V14.6387H90.5535V29.7808C90.5535 32.0134 88.7297 33.834 86.493 33.834H83.0944V36.4193C83.0944 38.4777 81.5409 40.1878 79.5447 40.4406V45.9468C79.5447 48.1795 77.7209 50 75.4843 50H71.8048C71.0174 50 70.281 49.7748 69.6575 49.3839C69.034 49.7748 68.2976 50 67.5102 50H57.7039C57.6145 50 57.5251 49.9979 57.4379 49.9915C57.3464 49.9979 57.2548 50 57.1612 50H52.6219C51.9516 50 51.328 49.8534 50.7747 49.573C50.2278 49.8471 49.6128 50 48.9616 50H45.2821C43.4774 50 41.9409 48.8146 41.4153 47.1832C40.8896 48.8146 39.3531 50 37.5485 50H33.869C33.7455 50 33.6242 49.9936 33.5051 49.983C33.3795 49.9936 33.2518 50 33.122 50H29.1999C28.106 50 27.1122 49.5858 26.3801 48.8784C25.6481 49.5858 24.6542 50 23.5604 50H19.8426C19.7127 50 19.5851 49.9936 19.4595 49.983C19.3382 49.9936 19.2169 50 19.0956 50H15.6033C15.0649 50 14.5499 49.8938 14.0796 49.7026C13.6008 49.8959 13.0751 50 12.5218 50H10.598C10.0468 50 9.52119 49.8959 9.04024 49.7026C8.56992 49.8938 8.05492 50 7.51651 50H4.06045C1.8238 50 0 48.1795 0 45.9468V33.1754C0 32.2811 0.29368 31.4526 0.787403 30.7813C0.706535 30.4627 0.661844 30.127 0.661844 29.7829V4.05319C0.661844 1.82054 2.48564 0 4.72229 0H12.1345C13.9498 0 15.4927 1.19811 16.0098 2.84446L16.7781 1.73981C17.5612 0.616051 18.7402 0 20.1107 0H28.7274C28.9019 0 29.0743 0.0106214 29.2446 0.0297403C29.4084 0.00849713 29.5744 0 29.7426 0H37.042C39.0807 0 40.7768 1.51464 41.0599 3.47325L41.9388 1.99048C42.69 0.722267 43.9562 0.00212396 45.4332 0.00212396H53.4476C53.9073 0.00212396 54.3521 0.0785998 54.7649 0.220929C55.1778 0.0785998 55.6205 0.00212396 56.0823 0.00212396H68.1614C70.8429 0.00212396 73.403 0.611803 75.5822 1.99048C76.2908 0.802991 77.5911 0.00212396 79.0723 0.00212396H102.139C102.599 0.00212396 103.043 0.0785998 103.456 0.220929C103.869 0.0785998 104.312 0.00212396 104.774 0.00212396H112.073C114.112 0.00212396 115.808 1.51676 116.091 3.47538L116.97 1.99261C117.721 0.724392 118.987 0.00424873 120.464 0.00424873H128.479C128.904 0.00424873 129.315 0.0701024 129.702 0.193313C130.088 0.0701024 130.498 0.00424873 130.926 0.00424873H138.338C140.575 0.00424873 142.399 1.82479 142.399 4.05744V10.4049C142.399 10.4176 142.399 10.441 142.401 10.4601C142.443 10.4792 142.518 10.4856 142.554 10.4856C142.588 10.4856 142.656 10.4814 142.705 10.4707C142.707 10.4474 142.707 10.4219 142.707 10.4049V4.05744C142.707 1.82479 144.531 0.00424873 146.768 0.00424873H154.18C156.417 0.00424873 158.24 1.82479 158.24 4.05744V24.5061C158.768 22.0228 160.981 20.1088 163.612 20.1088H167.683C167.604 19.7646 167.564 19.4099 167.564 19.0466V14.2988H167.385C165.148 14.2988 163.324 12.4782 163.324 10.2456V4.14454C163.324 1.83116 165.155 0.118961 167.398 0.0106214C167.632 -1.62231e-07 167.853 0.0084972 168.085 0.0148701H170.322C170.886 0.0148701 171.413 0.116837 171.899 0.318647C172.512 0.118962 173.154 0.0148701 173.808 0.0148701H175.525C176.187 0.0148701 176.829 0.121086 177.451 0.322896L177.457 0.314398ZM67.8699 29.1371C67.9997 29.1244 68.1295 29.118 68.2615 29.118H75.0246V25.3877C72.805 26.7048 70.2427 27.2953 67.5656 27.3293V29.118C67.6677 29.1201 67.7699 29.1265 67.8699 29.135V29.1371ZM25.6949 14.8702L24.2584 16.7863L25.6949 18.7683V14.8702Z" fill="#FEFEFE"/>
<path d="M12.143 15.5054V4.04895H4.73077V29.7787H12.143V19.2612L19.5169 29.7787H28.6614L19.2169 16.746L28.7359 4.05107H20.1192L12.143 15.5075V15.5054ZM46.1588 29.7787H53.4583V4.04895H45.4438L37.0526 18.2096V4.04895H29.7532V29.7787H37.7677L46.1588 15.8431V29.7787ZM67.3059 23.2804C70.4662 23.2804 72.9497 22.3414 74.7181 20.5018C76.4866 18.5856 77.3889 16.2192 77.3889 13.3662C77.3889 10.7002 76.5994 8.4824 74.9799 6.71709C73.3625 4.95178 71.0663 4.05107 68.1699 4.05107H56.0907V29.7808H63.503V23.2825H67.3038L67.3059 23.2804ZM66.5164 10.5855C68.736 10.5855 69.8277 11.5988 69.8277 13.6657C69.8277 15.618 68.6232 16.746 66.5164 16.746H63.5072V10.5855H66.5164ZM94.7373 29.7787H102.15V4.04895H79.085V29.7787H86.4973V10.5855H94.7373V29.7787ZM121.19 29.7787H128.489V4.04895H120.475L112.084 18.2096V4.04895H104.784V29.7787H112.799L121.19 15.8431V29.7787ZM154.188 29.7787V4.04895H146.776V10.3964C146.776 12.8011 144.969 14.5282 142.562 14.5282C140.266 14.5282 138.349 12.8372 138.349 10.3964V4.04895H130.937V11.4479C130.937 14.3774 131.803 16.7439 133.533 18.5474C135.263 20.3127 137.598 21.2134 140.532 21.2134C142.941 21.2134 145.01 20.5379 146.778 19.1486V29.7787H154.191H154.188Z" fill="#89242B"/>
<path d="M10.6023 45.9405H12.5261L15.6076 38.7433V45.9405H19.0998V33.1691H14.3563L11.5918 39.7502L8.80827 33.1691H4.0647V45.9405H7.52076V38.7433L10.6023 45.9405ZM27.7102 41.1119H25.0394L26.3844 36.7677L27.7102 41.1119ZM29.2041 45.9405H33.1263L28.8487 33.1691H24.1413L19.8468 45.9405H23.5625L24.1413 44.0753H28.6232L29.202 45.9405H29.2041ZM39.4383 42.7157C41.0067 42.7157 42.2389 42.2505 43.1178 41.3371C43.9945 40.3854 44.4436 39.2127 44.4436 37.7958C44.4436 36.4724 44.052 35.372 43.2476 34.4968C42.4453 33.6215 41.3046 33.1733 39.866 33.1733H33.8711V45.9447H37.5506V42.72H39.4361L39.4383 42.7157ZM39.0467 36.415C40.149 36.415 40.6896 36.9185 40.6896 37.9445C40.6896 38.9132 40.0916 39.474 39.0467 39.474H37.5527V36.4171H39.0467V36.415ZM48.9637 38.858V33.1712H45.2842V45.9426H48.9637V40.7231L52.6241 45.9426H57.1633L52.4751 39.474L57.1995 33.1733H52.922L48.9616 38.8601L48.9637 38.858ZM57.7039 45.9426H67.5081V42.8113H61.3813V41.0779H66.9101V37.9828H61.3813V36.3046H67.4698V33.1733H57.7017V45.9447L57.7039 45.9426ZM75.4843 45.9426V36.415H79.0319V33.1712H68.2551V36.415H71.8027V45.9426H75.4822H75.4843Z" fill="#0A3F25"/>
<path fill-rule="evenodd" clip-rule="evenodd" d="M162.188 25.6318C162.188 24.8522 162.848 24.1512 163.618 24.1512H172.018V26.9808C172.018 27.8602 172.231 28.232 172.68 28.8141L173.009 29.1072C173.68 29.6085 174.161 29.6043 174.931 29.6043C175.238 29.6043 175.529 29.5321 175.757 29.4407C175.885 29.3897 175.976 29.3494 176.091 29.2814C176.917 28.7949 177.325 28.0472 177.323 27.0594V24.593C177.323 24.3615 177.276 24.1512 177.402 24.1512H185.751C186.055 24.1512 186.387 24.2956 186.561 24.4337C186.798 24.6207 186.921 24.7715 187.051 25.0604C187.398 25.8336 186.944 26.4285 186.551 27.0806L182.643 33.7722C182.288 34.3755 181.75 35.255 181.416 35.8689C181.345 35.9985 181.288 36.0835 181.216 36.2152L180.179 37.9847C180.109 38.1016 180.041 38.2184 179.977 38.3289C179.445 39.2572 178.832 40.245 178.33 41.15L176.691 43.9541C176.617 44.09 176.555 44.1814 176.483 44.3173C176.253 44.74 175.927 45.354 175.574 45.6429C174.952 46.1485 173.863 46.0401 173.352 45.1224L172.22 43.1872C172.088 42.9705 171.979 42.7687 171.845 42.5478C171.101 41.3199 170.326 39.9455 169.583 38.6794L166.568 33.513C166.063 32.6803 165.567 31.7711 165.063 30.9405L163.75 28.6951C163.684 28.5804 163.624 28.4848 163.559 28.3658L162.803 27.0679C162.548 26.6005 162.188 26.1672 162.188 25.6318Z" fill="#0A3F25"/>
<path fill-rule="evenodd" clip-rule="evenodd" d="M171.628 19.038V6.13495C171.628 5.4573 172.033 4.8901 172.441 4.55659C172.814 4.25069 173.297 4.05737 173.814 4.05737H175.531C175.874 4.05737 176.165 4.14234 176.412 4.24219C177.138 4.53747 177.742 5.36807 177.742 6.16044V19.0104C177.742 19.4969 177.272 19.9451 176.781 19.9451H172.567C172.107 19.9451 171.63 19.4969 171.63 19.0359L171.628 19.038Z" fill="#89242B"/>
<path fill-rule="evenodd" clip-rule="evenodd" d="M199.377 25.3982V19.3503C199.377 19.2908 199.396 19.2717 199.456 19.2717H213.863C213.923 19.2717 213.942 19.2887 213.942 19.3503V25.3982C213.942 25.4577 213.925 25.4768 213.863 25.4768H199.456C199.396 25.4768 199.377 25.4598 199.377 25.3982Z" fill="#89242B"/>
<path fill-rule="evenodd" clip-rule="evenodd" d="M190.926 26.879H205.463V33.082H190.926V26.879Z" fill="#89242B"/>
<path fill-rule="evenodd" clip-rule="evenodd" d="M199.377 34.5094H213.942V40.689H199.377V34.5094Z" fill="#89242B"/>
<path fill-rule="evenodd" clip-rule="evenodd" d="M199.377 4.05963H213.942V10.2371H199.377V4.05963Z" fill="#89242B" stroke="#EBECEC" stroke-width="0.755026" stroke-miterlimit="22.9256"/>
<path fill-rule="evenodd" clip-rule="evenodd" d="M183.384 4.05963H197.947V10.2371H183.384V4.05963Z" fill="#89242B"/>
<path fill-rule="evenodd" clip-rule="evenodd" d="M190.926 11.6646H205.463V17.8442H190.926V11.6646Z" fill="#89242B"/>
<path fill-rule="evenodd" clip-rule="evenodd" d="M183.384 36.3533C183.384 36.2556 183.578 35.9688 183.633 35.8753C183.729 35.7118 183.803 35.5737 183.899 35.4144L184.369 34.6114C184.403 34.554 184.399 34.5115 184.476 34.5115H197.947V40.689H183.384V36.3533Z" fill="#89242B"/>
<path fill-rule="evenodd" clip-rule="evenodd" d="M185.568 22.2308H183.382V19.3481C183.382 19.2886 183.399 19.2695 183.461 19.2695H197.868C197.928 19.2695 197.947 19.2865 197.947 19.3481V25.3961C197.947 25.4555 197.928 25.4747 197.868 25.4747H189.156C189.053 25.4747 189.079 25.3748 189.049 25.1645C189.032 25.0413 189.015 24.9372 188.983 24.814C188.583 23.2462 187.251 22.2287 185.565 22.2287L185.568 22.2308Z" fill="#89242B"/>
<path fill-rule="evenodd" clip-rule="evenodd" d="M179.664 11.6646H189.417C189.477 11.6646 189.496 11.6837 189.496 11.7432V17.8442H179.666V11.6667L179.664 11.6646Z" fill="#89242B"/>
<path fill-rule="evenodd" clip-rule="evenodd" d="M172.982 27.2676V20.882H176.31C176.37 20.882 176.389 20.899 176.389 20.9606V27.1912C176.389 27.4695 176.259 27.8391 176.095 28.0409C175.629 28.6102 175.248 28.6718 174.516 28.6718C173.665 28.6718 172.982 27.9368 172.982 27.2698V27.2676Z" fill="#89242B"/>
<path fill-rule="evenodd" clip-rule="evenodd" d="M188.898 26.8789C189.258 26.8789 189.496 26.8258 189.496 26.9575V33.0055C189.496 33.1287 189.285 33.0841 189.053 33.0841H185.282C185.31 32.9608 185.429 32.8058 185.491 32.6953C185.529 32.6231 185.559 32.5763 185.606 32.4999C185.651 32.4255 185.676 32.3724 185.719 32.3023L188.202 28.0579C188.334 27.8221 188.685 27.2528 188.766 27.0637C188.798 26.9894 188.804 26.8832 188.896 26.8832L188.898 26.8789Z" fill="#89242B"/>
<path fill-rule="evenodd" clip-rule="evenodd" d="M167.389 4.13603C167.389 4.00645 167.819 4.05743 168.066 4.05743H170.328C170.288 4.23375 169.705 4.98788 169.705 6.186V10.2349H167.389V4.13391V4.13603Z" fill="#89242B"/>
<path fill-rule="evenodd" clip-rule="evenodd" d="M179.664 6.34327C179.664 5.87592 179.594 5.43194 179.479 5.07506C179.404 4.8435 179.277 4.50999 179.156 4.30818C179.113 4.23595 179.047 4.1446 179.041 4.05963H181.954V10.2393H179.666V6.34539L179.664 6.34327Z" fill="#89242B"/>
</svg>
