<svg width="21" height="20" viewBox="0 0 21 20" fill="none" xmlns="http://www.w3.org/2000/svg">
<path fill-rule="evenodd" clip-rule="evenodd" d="M9.66666 15.8333C9.20666 15.8333 8.83333 15.46 8.83333 15C8.83333 14.54 9.20666 14.1667 9.66666 14.1667C10.1267 14.1667 10.5 14.54 10.5 15C10.5 15.46 10.1267 15.8333 9.66666 15.8333ZM18 14.1667H12.0125C11.6675 13.1992 10.7517 12.5 9.66666 12.5C8.58166 12.5 7.66583 13.1992 7.32083 14.1667H3C2.53916 14.1667 2.16666 14.5392 2.16666 15C2.16666 15.4608 2.53916 15.8333 3 15.8333H7.32083C7.66583 16.8008 8.58166 17.5 9.66666 17.5C10.7517 17.5 11.6675 16.8008 12.0125 15.8333H18C18.4608 15.8333 18.8333 15.4608 18.8333 15C18.8333 14.5392 18.4608 14.1667 18 14.1667ZM16.3333 10.8333C15.8733 10.8333 15.5 10.46 15.5 10C15.5 9.54 15.8733 9.16667 16.3333 9.16667C16.7933 9.16667 17.1667 9.54 17.1667 10C17.1667 10.46 16.7933 10.8333 16.3333 10.8333ZM16.3333 7.5C15.2483 7.5 14.3325 8.19917 13.9875 9.16667H3C2.53916 9.16667 2.16666 9.53917 2.16666 10C2.16666 10.4608 2.53916 10.8333 3 10.8333H13.9875C14.3325 11.8008 15.2483 12.5 16.3333 12.5C17.7117 12.5 18.8333 11.3783 18.8333 10C18.8333 8.62167 17.7117 7.5 16.3333 7.5ZM6.33333 4.16667C6.79333 4.16667 7.16666 4.54 7.16666 5C7.16666 5.46 6.79333 5.83333 6.33333 5.83333C5.87333 5.83333 5.5 5.46 5.5 5C5.5 4.54 5.87333 4.16667 6.33333 4.16667ZM3 5.83333H3.9875C4.3325 6.80083 5.24833 7.5 6.33333 7.5C7.41833 7.5 8.33416 6.80083 8.67916 5.83333H18C18.4608 5.83333 18.8333 5.46083 18.8333 5C18.8333 4.53917 18.4608 4.16667 18 4.16667H8.67916C8.33416 3.19917 7.41833 2.5 6.33333 2.5C5.24833 2.5 4.3325 3.19917 3.9875 4.16667H3C2.53916 4.16667 2.16666 4.53917 2.16666 5C2.16666 5.46083 2.53916 5.83333 3 5.83333Z" fill="white"/>
</svg>
