<svg width="16" height="16" viewBox="0 0 16 16" fill="none" xmlns="http://www.w3.org/2000/svg">
    <path fill-rule="evenodd" clip-rule="evenodd"
          d="M12.6677 2.68366C13.0344 2.68566 13.331 2.98299 13.331 3.34966L13.333 6.66633C13.3337 7.03433 13.035 7.33366 12.667 7.33366H12.6664C12.2984 7.33366 12.0004 7.03499 11.9997 6.66766L11.9984 4.94433L9.80437 7.13833C9.67437 7.26833 9.5037 7.33366 9.33304 7.33366C9.16304 7.33366 8.99237 7.26833 8.8617 7.13833C8.6017 6.87766 8.6017 6.45566 8.8617 6.19566L11.0484 4.00899L9.33037 4.00033C8.9617 3.99833 8.66437 3.69766 8.66637 3.33033C8.66837 2.96299 8.96704 2.66699 9.33304 2.66699H9.33637L12.6677 2.68366ZM6.1953 8.86206C6.45597 8.60139 6.8773 8.60139 7.13797 8.86206C7.39864 9.12273 7.39864 9.54406 7.13797 9.80473L4.9433 11.9994L6.66664 12.0001C7.0353 12.0001 7.3333 12.2987 7.3333 12.6674C7.33264 13.0354 7.03464 13.3334 6.66664 13.3334H6.66597L3.3493 13.3314C2.98264 13.3314 2.6853 13.0347 2.6833 12.6681L2.66664 9.33673C2.66464 8.96873 2.96197 8.66873 3.32997 8.66673H3.3333C3.69997 8.66673 3.99797 8.96273 3.99997 9.33006L4.00864 11.0487L6.1953 8.86206Z"
          fill="#131313"/>
</svg>
