<svg width="25" height="21" viewBox="0 0 25 21" fill="none" xmlns="http://www.w3.org/2000/svg">
<path d="M0.423936 10.0501L5.97398 12.1189L8.12314 19.0246C8.26012 19.4686 8.80332 19.6292 9.1623 19.3364L12.2562 16.814C12.5821 16.5495 13.0402 16.5354 13.3803 16.781L18.9587 20.829C19.3413 21.1076 19.8892 20.8998 19.9837 20.4322L24.0695 0.773245C24.1734 0.282007 23.6727 -0.143102 23.1909 0.0458352L0.419213 8.82671C-0.142877 9.04399 -0.138153 9.84225 0.423936 10.0501ZM7.77361 11.0184L18.6186 4.33944C18.8123 4.22135 19.0154 4.48114 18.8453 4.63702L9.89915 12.9597C9.58268 13.2526 9.37958 13.6446 9.32289 14.0697L9.01587 16.3275C8.97336 16.6298 8.55297 16.6582 8.46795 16.3653L7.29654 12.2465C7.16428 11.7789 7.35794 11.2782 7.77361 11.0184Z" fill="white"/>
</svg>
