<svg width="48" height="48" viewBox="0 0 48 48" fill="none" xmlns="http://www.w3.org/2000/svg">
<path fill-rule="evenodd" clip-rule="evenodd" d="M24 22.9995C23.173 22.9995 22.5 22.3265 22.5 21.4995C22.5 20.6725 23.173 19.9995 24 19.9995C24.827 19.9995 25.5 20.6725 25.5 21.4995C25.5 22.3265 24.827 22.9995 24 22.9995ZM24 17.9995C22.07 17.9995 20.5 19.5695 20.5 21.4995C20.5 23.4295 22.07 24.9995 24 24.9995C25.93 24.9995 27.5 23.4295 27.5 21.4995C27.5 19.5695 25.93 17.9995 24 17.9995ZM24 31.646C22.325 30.062 18 25.615 18 21.922C18 18.657 20.691 16 24 16C27.309 16 30 18.657 30 21.922C30 25.615 25.675 30.062 24 31.646ZM24 14C19.589 14 16 17.553 16 21.922C16 27.397 23.049 33.501 23.349 33.758C23.537 33.919 23.768 34 24 34C24.232 34 24.463 33.919 24.651 33.758C24.951 33.501 32 27.397 32 21.922C32 17.553 28.411 14 24 14Z" fill="white"/>
</svg>
