<svg width="48" height="48" viewBox="0 0 48 48" fill="none" xmlns="http://www.w3.org/2000/svg">
<path fill-rule="evenodd" clip-rule="evenodd" d="M15.9483 18H32.0513C32.5733 18 33.0003 18.427 33.0003 18.949V19.051C33.0003 19.573 32.5733 20 32.0513 20H15.9483C15.4263 20 15.0003 19.573 15.0003 19.051V18.949C15.0003 18.427 15.4263 18 15.9483 18ZM32.0513 23H15.9483C15.4263 23 15.0003 23.427 15.0003 23.949V24.051C15.0003 24.573 15.4263 25 15.9483 25H32.0513C32.5733 25 33.0003 24.573 33.0003 24.051V23.949C33.0003 23.427 32.5733 23 32.0513 23ZM32.0513 28H15.9483C15.4263 28 15.0003 28.427 15.0003 28.949V29.051C15.0003 29.573 15.4263 30 15.9483 30H32.0513C32.5733 30 33.0003 29.573 33.0003 29.051V28.949C33.0003 28.427 32.5733 28 32.0513 28Z" fill="white"/>
</svg>
