<svg width="12" height="14" viewBox="0 0 12 14" fill="none" xmlns="http://www.w3.org/2000/svg">
<path fill-rule="evenodd" clip-rule="evenodd" d="M6.00002 6.33298C5.44869 6.33298 5.00002 5.88431 5.00002 5.33298C5.00002 4.78165 5.44869 4.33298 6.00002 4.33298C6.55135 4.33298 7.00002 4.78165 7.00002 5.33298C7.00002 5.88431 6.55135 6.33298 6.00002 6.33298M6.00002 2.99965C4.71335 2.99965 3.66669 4.04631 3.66669 5.33298C3.66669 6.61965 4.71335 7.66631 6.00002 7.66631C7.28669 7.66631 8.33335 6.61965 8.33335 5.33298C8.33335 4.04631 7.28669 2.99965 6.00002 2.99965M6.00002 12.0973C4.88335 11.0413 2.00002 8.07665 2.00002 5.61465C2.00002 3.43798 3.79402 1.66665 6.00002 1.66665C8.20602 1.66665 10 3.43798 10 5.61465C10 8.07665 7.11669 11.0413 6.00002 12.0973M6.00002 0.333313C3.05935 0.333313 0.666687 2.70198 0.666687 5.61465C0.666687 9.26465 5.36602 13.334 5.56602 13.5053C5.69135 13.6126 5.84535 13.6666 6.00002 13.6666C6.15469 13.6666 6.30869 13.6126 6.43402 13.5053C6.63402 13.334 11.3334 9.26465 11.3334 5.61465C11.3334 2.70198 8.94069 0.333313 6.00002 0.333313" fill="#131313"/>
</svg>
